<svg version="1.2" xmlns="http://www.w3.org/2000/svg" viewBox="0 0 640 640" width="640" height="640">
	<title>man_photo</title>
	<defs>
		<clipPath clipPathUnits="userSpaceOnUse" id="cp1">
			<path d="m320 640c-176.96 0-320-143.04-320-320 0-176.96 143.04-320 320-320 176.96 0 320 143.04 320 320 0 176.96-143.04 320-320 320z"/>
		</clipPath>
	</defs>
	<style>
		.s0 { fill: #f2f2f2 } 
		.s1 { fill: #ed9da0 } 
		.s2 { fill: #ffae00 } 
		.s3 { fill: #2f2e41 } 
	</style>
	<g>
		<path fill-rule="evenodd" class="s0" d="m320 640c-176.96 0-320-143.04-320-320 0-176.96 143.04-320 320-320 176.96 0 320 143.04 320 320 0 176.96-143.04 320-320 320z"/>
		<g id="Clip-Path" clip-path="url(#cp1)">
			<g>
				<g>
					<path class="s1" d="m252.58 405.11c0 0 4.97 21.13 0.56 40.73q-0.3 1.31-0.76 2.58-0.46 1.26-1.07 2.45-0.62 1.2-1.38 2.3-0.76 1.11-1.66 2.11l89.11 58.75c0 0 42.51 10.53 29.1 27.86-13.42 17.33-48.47-16.42-48.47-16.42 0 0-100.2-29.18-106.2-45.12-5.99-15.94-2.68-78.6-2.68-78.6z"/>
					<path class="s1" d="m261.46 264.05c0 0 8.06 40.27 8.06 46.31 0 6.04 34.23 24.17 34.23 24.17l38.25-48.33c0 0-24.16-34.23-24.16-42.28z"/>
					<path fill-rule="evenodd" class="s1" d="m279.58 278.15c-28.95 0-52.35-23.4-52.35-52.35 0-28.95 23.4-52.35 52.35-52.35 28.95 0 52.35 23.4 52.35 52.35 0 28.95-23.4 52.35-52.35 52.35z"/>
					<path class="s2" d="m291.66 316.4c0 0-17.55-4.67-22.87-12.39 0 0-55.65 54.68-55.65 64.75l44.29 78.52c0 0 0 28.19 4.03 30.2 4.03 2.01 0 0 0 8.05 0 8.06-12.08 60.4-8.05 68.46 4.02 8.06 8.05 2.01 4.02 14.1-4.02 12.08-14.09 76.51-14.09 76.51 0 0 36.24-12.08 88.59 8.05 52.35 20.14 114.77-8.05 114.77-8.05 0 0-16.11-36.24-12.08-48.33 4.03-12.08-10.07-34.22-10.07-34.22l-10.06-185.24c0 0 14.09-82.56 4.02-86.58l-20.13-8.06-64.48-7.92c0 0-16.06 40.14-42.24 42.16z"/>
					<path class="s2" d="m233.27 354.66l-20.13 14.09c0 0-10.07 30.2 0 44.3 10.07 14.11 41.68 30.2 41.68 30.2h12.68z"/>
					<path class="s3" d="m239.61 170.47l-9.08-3.63c0 0 18.99-20.9 45.4-19.09l-7.43-8.18c0 0 18.16-7.27 34.67 11.82 8.68 10.03 18.73 21.82 24.99 35.11h9.72l-4.06 8.94 14.21 8.93-14.58-1.6q0.51 2.88 0.69 5.8 0.17 2.93-0.01 5.85-0.17 2.93-0.69 5.81-0.52 2.88-1.37 5.68l0.39 7.07c0 0-16.9-26.15-16.9-29.79v9.09c0 0-9.08-8.18-9.08-13.63l-4.96 6.36-2.47-10-30.55 10 4.96-8.18-18.99 2.73 7.43-10c0 0-21.46 11.81-22.29 21.81-0.82 10-11.56 22.72-11.56 22.72l-4.95-9.09c0 0-7.43-40.9 16.51-54.53z"/>
					<path class="s1" d="m382.27 372.78c0 0-11.66 29.98-9.23 59.65q0.17 1.98 0.59 3.93 0.41 1.95 1.07 3.83 0.66 1.87 1.55 3.66 0.89 1.78 1.99 3.43l-142.84 67.82c0 0-64.55 6.68-48.44 34.87 16.11 28.19 74.5-14.1 74.5-14.1 0 0 153.03-22.14 165.1-44.3 12.08-22.15 20.14-114.76 20.14-114.76z"/>
					<path class="s2" d="m388.31 290.23h30.2c0 0 22.15 4.03 28.19 44.3 6.04 40.27 12.08 50.34 6.04 50.34-6.04 0-78.52-2.02-78.52-4.03 0-2.01 14.09-90.61 14.09-90.61z"/>
				</g>
			</g>
		</g>
	</g>
</svg>