<svg version="1.2" xmlns="http://www.w3.org/2000/svg" viewBox="0 0 640 640" width="640" height="640">
	<title>woman_photo</title>
	<defs>
		<clipPath clipPathUnits="userSpaceOnUse" id="cp1">
			<path d="m320 640c-176.96 0-320-143.04-320-320 0-176.96 143.04-320 320-320 176.96 0 320 143.04 320 320 0 176.96-143.04 320-320 320z"/>
		</clipPath>
	</defs>
	<style>
		.s0 { fill: #f2f2f2 } 
		.s1 { fill: #ed9da0 } 
		.s2 { fill: #ffb200 } 
		.s3 { fill: #090814 } 
	</style>
	<g>
		<path fill-rule="evenodd" class="s0" d="m320 640c-176.96 0-320-143.04-320-320 0-176.96 143.04-320 320-320 176.96 0 320 143.04 320 320 0 176.96-143.04 320-320 320z"/>
		<g id="Clip-Path" clip-path="url(#cp1)">
			<g>
				<path class="s1" d="m280.57 403.54l-28.97-36.22-21.73-74.24 83.3-88.73c0 0 18.1-68.81 1.81-65.19-16.3 3.62-19.92 54.33-19.92 54.33l-105.03 81.48c0 0 10.86 114.08 41.65 153.92l23.54 74.24z"/>
				<path class="s1" d="m360.24 403.54l28.97-36.22 21.73-74.24-83.3-88.73c0 0-18.11-68.81-1.81-65.19 16.3 3.62 19.92 54.33 19.92 54.33l105.02 81.48c0 0-10.86 114.08-41.64 153.92l-23.54 74.24z"/>
				<path class="s1" d="m298.67 351.02c0 0 1.82 38.03-9.05 50.7-10.86 12.68-21.73 77.87 30.78 79.68 52.52 1.81 47.08-54.33 47.08-54.33l-10.86-30.78c0 0-16.3-23.54-10.87-45.27z"/>
				<path class="s2" d="m322.53 427.1l-28.26-34.14-19.14 8.77-19.91 63.37c0 0-16.3 30.79 3.62 63.38 0 0 3.62 21.73-1.81 27.16-5.44 5.44-7.25 39.84-7.25 39.84l-23.54 45.27c0 0 134 23.54 173.84-9.05 0 0-20.9-77.07-8.23-100.61 12.67-23.55 14.49-59.63 0-75.93-14.49-16.3-29.8-58.87-29.8-58.87l-8.77-5.61z"/>
				<path fill-rule="evenodd" class="s3" d="m323.6 365.72c-31.41 0-56.8-25.39-56.8-56.8 0-31.41 25.39-56.8 56.8-56.8 31.41 0 56.8 25.39 56.8 56.8 0 31.41-25.39 56.8-56.8 56.8z"/>
				<path fill-rule="evenodd" class="s1" d="m319.69 369.86c-23.27 0-42.09-18.81-42.09-42.09 0-23.27 18.82-42.09 42.09-42.09 23.28 0 42.09 18.82 42.09 42.09 0 23.28-18.81 42.09-42.09 42.09z"/>
				<path fill-rule="evenodd" class="s3" d="m333.01 262.66c-8.76 0-15.83-7.08-15.83-15.83 0-8.75 7.07-15.83 15.83-15.83 8.75 0 15.83 7.08 15.83 15.83 0 8.75-7.08 15.83-15.83 15.83z"/>
				<path class="s3" d="m328.25 264.06c0 0-16.18 26.91-53.78 36.97-37.6 10.06-0.31 66.58-0.31 66.58 0 0-13.56-20.55 6-42.31 19.56-21.76 51.04-36.64 48.09-61.24z"/>
			</g>
		</g>
	</g>
</svg>